Exact Audio Copy V0.99 prebeta 5 from 4. May 2009

Отчёт EAC об извлечении, выполненном 3. июня 2009, 12:36

Unknown Artist / Unknown Title

Дисковод: Optiarc DVD RW AD-7200S   Adapter: 2  ID: 0

Режим чтения                 : Достоверность
Использование точного потока : Да
Отключение кэша аудио        : Да
Использование указателей C2  : Нет

Коррекция смещения при чтении                     : 48
Способность читать области Lead-in и Lead-out     : Нет
Заполнение пропущенных сэмплов тишиной            : Да
Удаление блоков с тишиной в начале и конце        : Нет
При вычислениях CRC использовались нулевые сэмплы : Да
Интерфейс                                         : Установленный внешний ASPI-интерфейс

Выходной формат          : Monkey's Audio (без потерь)
Выбранный битрейт        : Normal Lossless Compression
Качество                 : Высокий
Добавление ID3-тэга      : Да
Утилита сжатия           : C:\Program Files\Exact Audio Copy\MAC.exe


TOC извлечённого CD

     Трек |   Старт  | Длительность | Начальный сектор | Конечный сектор 
    ---------------------------------------------------------------------
       1  |  0:00.33 |    3:35.17   |          33      |      16174      
       2  |  3:35.50 |    3:19.33   |       16175      |      31132      
       3  |  6:55.08 |    3:06.62   |       31133      |      45144      
       4  | 10:01.70 |    3:24.53   |       45145      |      60497      
       5  | 13:26.48 |    3:04.07   |       60498      |      74304      
       6  | 16:30.55 |    3:05.28   |       74305      |      88207      
       7  | 19:36.08 |    3:17.25   |       88208      |     103007      
       8  | 22:53.33 |    3:07.62   |      103008      |     117094      
       9  | 26:01.20 |    3:48.13   |      117095      |     134207      
      10  | 29:49.33 |    3:43.20   |      134208      |     150952      
      11  | 33:32.53 |    3:08.27   |      150953      |     165079      
      12  | 36:41.05 |    2:45.55   |      165080      |     177509      
      13  | 39:26.60 |    3:10.73   |      177510      |     191832      
      14  | 42:37.58 |    2:58.40   |      191833      |     205222      
      15  | 45:36.23 |    3:06.65   |      205223      |     219237      
      16  | 48:43.13 |    2:52.07   |      219238      |     232144      


Характеристики диапазона извлечения и сообщения об ошибках

Выбранный диапазон

     Имя файла D:\Music\RIPs\ABBA\ABBA - 1975 - ABBA\ABBA - 1975 - ABBA.wav

     Пиковый уровень 87.7 %
     Качество диапазона 100.0 %
     CRC теста 8CCEB7EF
     CRC копии 8CCEB7EF
     Копирование... OK

Ошибок не произошло

Конец отчёта
